<?xml version="1.0" encoding="utf-8"?>
<!-- Generator: Adobe Illustrator 17.0.0, SVG Export Plug-In . SVG Version: 6.00 Build 0)  -->
<!DOCTYPE svg PUBLIC "-//W3C//DTD SVG 1.1//EN" "http://www.w3.org/Graphics/SVG/1.1/DTD/svg11.dtd">
<svg version="1.1" id="Layer_1" xmlns="http://www.w3.org/2000/svg" xmlns:xlink="http://www.w3.org/1999/xlink" x="0px" y="0px"
	 width="65px" height="65px" viewBox="0 0 65 65" enable-background="new 0 0 65 65" xml:space="preserve">
<g>
	<g>
		<path fill="#FFFFFF" d="M64,60c0,2.209-1.791,4-4,4H4c-2.209,0-4-1.791-4-4V4c0-2.209,1.791-4,4-4h56c2.209,0,4,1.791,4,4V60z"/>
		<path fill="none" stroke="#CCCCCC" stroke-miterlimit="10" d="M64.5,60.5c0,2.209-1.791,4-4,4h-56c-2.209,0-4-1.791-4-4v-56
			c0-2.209,1.791-4,4-4h56c2.209,0,4,1.791,4,4V60.5z"/>
	</g>
	<path fill="#AEC5A3" d="M33.316,34.417l13.602,14.531c0,0,4.41,4.554-1.329,9.53l-5.195,5.548L3.542,64.074
		c0,0-1.998-0.325-2.542-2.485V41.083l17.249-16.157c0,0,4.77-2.447,8.022,1.964L33.316,34.417z"/>
	<path fill="#95D9F7" d="M40.262,27.796c0,0,5.429-6.774,10.432-0.617l13.358,15.118v18.255c0,0-0.291,3.494-3.468,3.494
		s-34.917,0-34.917,0l-7.151-8.29c0,0-3.305-2.594-0.284-7.431L40.262,27.796z"/>
	<path fill="#FFFFFF" d="M33.284,34.258l-15.747,14.74c0,0-1.507,2.443-0.585,5.094l8.715,9.953h14.417l6.783-7.37
		c0,0,3.532-4.4-0.143-8.06C43.05,44.956,33.284,34.258,33.284,34.258z"/>
	<path fill="#F6907F" d="M33.035,38.045l-12.414,11.62c0,0-1.182,1.937-0.415,4.066l8.919,10.314h6.667l8.3-7.954
		c0,0,2.776-3.483-0.192-6.438S33.035,38.045,33.035,38.045z"/>
	<g enable-background="new    ">
		<path d="M14.902,12.13l-1.106,3.352h-1.423l3.62-10.654h1.66l3.636,10.654h-1.47L18.68,12.13H14.902z M18.396,11.056l-1.043-3.067
			c-0.237-0.695-0.396-1.328-0.554-1.944h-0.031c-0.158,0.633-0.332,1.28-0.538,1.929l-1.043,3.083H18.396z"/>
		<path d="M29.221,4.258v9.248c0,0.68,0.016,1.454,0.063,1.976h-1.249l-0.063-1.328H27.94c-0.427,0.854-1.359,1.502-2.608,1.502
			c-1.85,0-3.272-1.564-3.272-3.889c-0.016-2.545,1.565-4.11,3.431-4.11c1.169,0,1.96,0.554,2.308,1.17h0.032V4.258H29.221z
			 M27.83,10.945c0-0.174-0.016-0.411-0.063-0.585c-0.206-0.885-0.964-1.612-2.008-1.612c-1.438,0-2.292,1.265-2.292,2.956
			c0,1.55,0.759,2.83,2.26,2.83c0.933,0,1.787-0.617,2.04-1.66c0.047-0.189,0.063-0.379,0.063-0.601V10.945z"/>
		<path d="M31.525,9.902c0-0.791-0.016-1.438-0.063-2.071h1.217l0.063,1.233h0.047c0.427-0.728,1.138-1.407,2.402-1.407
			c1.044,0,1.834,0.633,2.166,1.533h0.032c0.236-0.427,0.537-0.759,0.854-0.995c0.458-0.349,0.964-0.538,1.691-0.538
			c1.012,0,2.514,0.664,2.514,3.32v4.505h-1.36v-4.331c0-1.471-0.537-2.355-1.659-2.355c-0.791,0-1.407,0.585-1.645,1.265
			c-0.063,0.189-0.11,0.442-0.11,0.695v4.727h-1.359v-4.584c0-1.218-0.538-2.103-1.597-2.103c-0.869,0-1.502,0.695-1.723,1.391
			c-0.079,0.206-0.11,0.442-0.11,0.68v4.616h-1.36V9.902z"/>
		<path d="M46.254,5.681c0.016,0.474-0.332,0.854-0.885,0.854c-0.49,0-0.839-0.38-0.839-0.854c0-0.49,0.364-0.87,0.87-0.87
			C45.922,4.811,46.254,5.191,46.254,5.681z M44.704,15.482V7.831h1.392v7.651H44.704z"/>
		<path d="M48.403,9.902c0-0.791-0.016-1.438-0.063-2.071h1.233l0.078,1.265h0.032c0.379-0.727,1.265-1.438,2.529-1.438
			c1.059,0,2.703,0.633,2.703,3.257v4.568h-1.392v-4.41c0-1.233-0.458-2.261-1.771-2.261c-0.916,0-1.628,0.648-1.865,1.423
			c-0.062,0.174-0.095,0.411-0.095,0.647v4.601h-1.391V9.902z"/>
	</g>
</g>
</svg>
