<?xml version="1.0" encoding="utf-8"?>
<!-- Generator: Adobe Illustrator 17.0.0, SVG Export Plug-In . SVG Version: 6.00 Build 0)  -->
<!DOCTYPE svg PUBLIC "-//W3C//DTD SVG 1.1//EN" "http://www.w3.org/Graphics/SVG/1.1/DTD/svg11.dtd">
<svg version="1.1" id="Layer_1" xmlns="http://www.w3.org/2000/svg" xmlns:xlink="http://www.w3.org/1999/xlink" x="0px" y="0px"
	 width="32px" height="32px" viewBox="0 0 32 32" enable-background="new 0 0 32 32" xml:space="preserve">
<circle fill="#FFFFFF" stroke="#939598" stroke-miterlimit="10" cx="16" cy="16" r="15.438"/>
<g transform="translate(-1238.5 -175.72)">
	<path fill="#939598" d="M1254.445,180.297c-3.721,0-6.749,3.028-6.749,6.749s3.028,6.749,6.749,6.749
		c3.721,0,6.749-3.028,6.749-6.749S1258.165,180.297,1254.445,180.297z M1248.083,193.407c-1.881,0.383-3.264,2.041-3.264,4.038
		v5.698h19.362v-5.698c0-1.998-1.382-3.655-3.264-4.038c-1.492,1.895-3.82,3.153-6.417,3.153c-2.597,0-4.87-1.258-6.362-3.153
		C1248.121,193.395,1248.093,193.42,1248.083,193.407L1248.083,193.407L1248.083,193.407z"/>
</g>
</svg>
