<?xml version="1.0" encoding="utf-8"?>
<!-- Generator: Adobe Illustrator 17.0.0, SVG Export Plug-In . SVG Version: 6.00 Build 0)  -->
<!DOCTYPE svg PUBLIC "-//W3C//DTD SVG 1.1//EN" "http://www.w3.org/Graphics/SVG/1.1/DTD/svg11.dtd">
<svg version="1.1" id="Layer_1" xmlns="http://www.w3.org/2000/svg" xmlns:xlink="http://www.w3.org/1999/xlink" x="0px" y="0px"
	 width="90px" height="90px" viewBox="0 0 90 90" enable-background="new 0 0 90 90" xml:space="preserve">
<rect fill="#55A4DB" width="90" height="90"/>
<g transform="translate(-1238.5 -175.72)">
	<path fill="#FFFFFF" d="M1282.002,190.877c-9.902,0-17.961,8.058-17.961,17.961c0,9.903,8.058,17.961,17.961,17.961
		c9.903,0,17.961-8.058,17.961-17.961C1299.963,198.936,1291.902,190.877,1282.002,190.877z M1265.071,225.767
		c-5.006,1.019-8.687,5.432-8.687,10.746v15.164h51.528v-15.164c0-5.317-3.678-9.727-8.687-10.746
		c-3.97,5.043-10.166,8.391-17.078,8.391s-12.961-3.348-16.931-8.391C1265.172,225.735,1265.098,225.802,1265.071,225.767
		L1265.071,225.767L1265.071,225.767z"/>
</g>
</svg>
